<svg id="Layer_1" data-name="Layer 1" xmlns="http://www.w3.org/2000/svg" viewBox="0 0 374.47 383.54"><defs><style>.cls-1{fill:none;stroke:#585858;stroke-miterlimit:10;stroke-width:10px;}.cls-2{fill:#bec1cd;}</style></defs><path class="cls-1" d="M229.87,338.09a147.79,147.79,0,0,1-36,6.08q-1.25-1.86-2.61-3.67c-9.93-13.17-22.64-21.83-36.09-29.66,8.19-9.19,14.43-19.73,19.5-30.56,21.8,12.75,41.24,29.89,52.79,52.77Q228.75,335.56,229.87,338.09Z"/><path class="cls-1" d="M151,267.41c-5.08,11.65-11.23,22.17-19.75,29.78-1.63-1-3.26-2-4.87-3-11.7-7.39-22.44-16.45-29.88-28.25-8.08-12.81-11.16-27.78-13.08-42.58-1-7.57-1.79-15.1-2.87-22.48a139.55,139.55,0,0,0,27.34-29.12c3,14.21,4.26,29,6.65,44,2.43,15.31,7.24,28.84,19,39.43A99,99,0,0,0,151,267.41Z"/><path class="cls-1" d="M226.43,177a42.53,42.53,0,0,0-14.8-.38,43.33,43.33,0,0,0-26.73,14.5,48.28,48.28,0,0,1-18.78-27.71c-3.39-13.33-.86-25.82,5.4-37.72,21.53-1,42.19.18,62.08-7.07C216.17,134,197,152.86,199.47,162.45,201.09,168.78,212.42,173.2,226.43,177Z"/><path class="cls-1" d="M333.28,220.34a147.65,147.65,0,0,1-10.86,36.29,68.73,68.73,0,0,0-5.52-9.35c-8.65-12.07-21.93-19.57-37-25h0c-14.64-20.22-30.16-38.17-48.78-44.08,4.65,1.18,9.49,2.3,14.29,3.41C274,188.19,308.68,196.21,333.28,220.34Z"/><path class="cls-1" d="M93.62,135.82c-7.53,10.33-14.31,21-22.65,30.28a71.77,71.77,0,0,0-12.29-18,77.55,77.55,0,0,0-8.48-7.78,146.94,146.94,0,0,1,17.73-31.64,114.47,114.47,0,0,1,23.48,24C92.18,133.67,92.92,134.74,93.62,135.82Z"/><path class="cls-1" d="M252.82,63.58C247.76,70.48,242.2,77,235.2,82.26c-12.66,9.58-26.52,12.85-41,14.07,9.78-9.89,21-19.5,32.12-29,3.91-3.34,7.85-6.71,11.68-10.06A143.5,143.5,0,0,1,252.82,63.58Z"/><path class="cls-2" d="M244.81,366.62a14.36,14.36,0,0,1-13.8-10.5,114.68,114.68,0,0,0-8-20.83c-10.72-21.22-29.64-39.31-56.26-53.74-2.28-1.23-4.58-2.44-6.9-3.66-10.26-5.39-20.86-10.95-29.75-19-14.29-12.92-18.49-29.42-20.54-42.35-.91-5.71-1.65-11.4-2.37-16.92-3-23-5.85-44.7-19.85-64.11A111.7,111.7,0,0,0,53.66,105c-1.2-.71-2.44-1.42-3.8-2.17a19.23,19.23,0,0,1-6.07-28.47,188.83,188.83,0,0,1,64.63-54.13,187.72,187.72,0,0,1,152.76-7.52,14.51,14.51,0,0,1,6.11,22.45l-.11.14c-8.75,11.15-23.42,23.68-37.61,35.8-33,28.26-67.15,57.46-58.6,91,7.64,30,39.07,37.31,72.34,45,30,6.94,61.1,14.13,77.65,37.21h0c3.39,4.75,19.86,29.85,11.05,58-2.85,9.12-8.23,17.91-16,26.14l-.36.34a185.23,185.23,0,0,1-66.4,37l-.1,0A14.33,14.33,0,0,1,244.81,366.62ZM193.2,10A176,176,0,0,0,51.76,80.41a9.1,9.1,0,0,0-1.67,7.47,9.35,9.35,0,0,0,4.62,6.22c1.45.8,2.78,1.57,4.07,2.33a121.61,121.61,0,0,1,36.68,33.25c15.48,21.46,18.48,44.39,21.65,68.67.71,5.44,1.45,11.07,2.33,16.64,2.68,16.8,8,28.06,17.37,36.5,7.95,7.18,18,12.45,27.7,17.54,2.35,1.24,4.7,2.47,7,3.73,28.44,15.42,48.77,34.95,60.42,58a123.54,123.54,0,0,1,8.69,22.66,4.37,4.37,0,0,0,5.51,3l.1,0a175.26,175.26,0,0,0,62.65-34.89c6.63-7.06,11.19-14.49,13.57-22.08,7.39-23.65-6.74-45.16-9.65-49.23-14.34-20-43.53-26.76-71.76-33.29-33.11-7.65-70.64-16.32-79.79-52.28C151.2,125,187.72,93.77,223,63.55c13.85-11.84,28.14-24,36.27-34.4l.1-.13a4.48,4.48,0,0,0,.81-4,4.42,4.42,0,0,0-2.68-3A176.06,176.06,0,0,0,193.2,10Z"/><path class="cls-2" d="M187.23,383.54C84,383.54,0,299.54,0,196.3a185.83,185.83,0,0,1,16.1-76l2.19-4.92,6.7,3.59c13.06,7,26.57,14.19,37.34,25.73,19,20.32,22,45.58,25,70q.48,4,1,8.07c1.69,13.05,4.47,28.06,12.35,40.55,6.2,9.84,15.46,18.57,28.32,26.69,5.95,3.77,12.19,7.25,18.22,10.62,17.18,9.6,34.95,19.52,48,36.9h0c8.34,11.07,13.94,23.78,17.13,38.87l1.14,5.39-5.48.61A189.79,189.79,0,0,1,187.23,383.54ZM23.12,129.27A175.92,175.92,0,0,0,10,196.3C10,294,89.51,373.54,187.23,373.54c4.62,0,9.34-.2,14.09-.58a84,84,0,0,0-14-29.45c-11.83-15.69-27.91-24.68-44.94-34.19-6.14-3.44-12.5-7-18.68-10.89-14.14-8.93-24.43-18.69-31.44-29.81-8.91-14.14-12-30.48-13.81-44.61-.35-2.72-.68-5.44-1-8.15C74.51,192,71.77,169.42,55,151.48,46.09,141.92,35,135.63,23.12,129.27Z"/><path class="cls-2" d="M354.26,243.34A17.38,17.38,0,0,1,340,235.86l-.15-.22c-23.28-32.5-63.39-41.76-95.62-49.19-25-5.77-46.53-10.75-49.6-22.76-3.56-14,20-35.6,48.86-60.27,16.08-13.75,32.71-28,43.77-43a17.71,17.71,0,0,1,12.49-7.12,17.29,17.29,0,0,1,13.35,4.39,187.51,187.51,0,0,1,58.57,171.09,17.28,17.28,0,0,1-13.39,14.11A18.46,18.46,0,0,1,354.26,243.34ZM301.5,63.21a6.34,6.34,0,0,0-.76,0,7.7,7.7,0,0,0-5.44,3.1C283.56,82.3,266.49,96.9,250,111c-9.2,7.87-21.8,18.65-31.49,28.76-14.77,15.4-14.4,20.56-14.18,21.44s1.73,3.74,12.61,7.62c8.26,2.95,19.08,5.45,29.55,7.87,33.87,7.81,76,17.53,101.5,53.11l.19.26a7.55,7.55,0,0,0,13.65-3,179.52,179.52,0,0,0,2.66-30.76,177.59,177.59,0,0,0-58.1-131.21A7.16,7.16,0,0,0,301.5,63.21Z"/></svg>