<svg id="Layer_1" data-name="Layer 1" xmlns="http://www.w3.org/2000/svg" xmlns:xlink="http://www.w3.org/1999/xlink" viewBox="0 0 256 256"><defs><style>.cls-1{fill:none;}.cls-2{fill:#1f1f1f;}.cls-3{clip-path:url(#clip-path);}.cls-4{fill:#353535;}.cls-5{fill:#2e55c6;}.cls-6{fill:#263f9b;}</style><clipPath id="clip-path"><circle class="cls-1" cx="128" cy="131.06" r="99.82"/></clipPath></defs><circle class="cls-2" cx="128" cy="131.06" r="99.82"/><g class="cls-3"><path class="cls-4" d="M36.43,121.85C51,113.08,58.15,98.61,68.3,85.7c5.17-6.56,11.29-12.46,18.85-16.19,8.2-4.06,17.39-5,26.4-5.21,16.63-.42,32.8.44,46.8-10.16,7.57-5.73,12.65-13.53,17.86-21.23a110.1,110.1,0,0,0-165,96.39A55.57,55.57,0,0,0,36.43,121.85Z"/><path class="cls-4" d="M84.63,203.15c13.91-7.93,20-25.61,25.84-42.7,6.7-19.51,13.62-39.7,34-42.69,22.57-3.31,38.54,19.81,54,42.18,6.33,9.18,12.88,18.67,18.77,24.37l.08.08a5.74,5.74,0,0,0,9.09-1.49A110.22,110.22,0,0,0,203.51,52a8.61,8.61,0,0,0-12.95,1.39c-.53.75-1.06,1.49-1.6,2.23A70.93,70.93,0,0,1,167.6,74.78c-16.31,9.38-33.42,7.72-51.42,8.7C106.83,84,98.4,86,91.3,92.41,85,98.06,80.61,105.58,75.88,112.49c-9.33,13.63-21.54,25.6-37.23,31.58a71.82,71.82,0,0,1-13.58,3.66,5.63,5.63,0,0,0-4.58,6.7v.06a109.54,109.54,0,0,0,17.63,41.09A38,38,0,0,0,51.75,206C66.84,212.52,81.79,204.77,84.63,203.15Z"/><path class="cls-4" d="M112,237.93a110.2,110.2,0,0,1-18.83-3.62,7.58,7.58,0,0,1-1.62-13.93l.14-.08c22-12.53,30.25-36.66,36.89-56.05,4.31-12.57,8.78-25.56,14.36-26.39,7.5-1.09,21.75,19.53,30.25,31.85,7.26,10.53,15,21.71,23.57,29.51a7.56,7.56,0,0,1,.05,11.22A109.82,109.82,0,0,1,112,237.93Z"/></g><path class="cls-5" d="M130.74,228.31c-11.42-15.16-28.31-21.44-43.8-31.23C79.05,192.1,71.8,186,66.79,178c-5.45-8.64-7.53-18.74-8.82-28.72-2.39-18.41-3.3-36.45-16.67-50.78C34.06,90.78,24.81,86,15.67,81.14a122.88,122.88,0,0,0,126,172.05A61.92,61.92,0,0,0,130.74,228.31Z"/><path class="cls-5" d="M215.44,165.43c-10.41-14.52-30.73-19.23-50.38-23.77-22.43-5.19-45.64-10.55-51.3-32.81-6.28-24.68,17.55-45.06,40.6-64.78,9.47-8.09,19.25-16.46,24.9-23.66l.08-.09a6.42,6.42,0,0,0-2.7-9.93A123,123,0,0,0,34,50.86a9.6,9.6,0,0,0,3,14.22c.89.49,1.78,1,2.65,1.52A79,79,0,0,1,63.37,88.1c12.29,17,12.42,36.21,15.58,56.09,1.64,10.32,4.88,19.45,12.78,26.59,7,6.32,15.85,10.35,24.07,14.81,16.21,8.79,30.9,21,39.35,37.69a79.66,79.66,0,0,1,5.62,14.66,6.29,6.29,0,0,0,8,4.31l.07,0a122.08,122.08,0,0,0,43.58-24.31,42.25,42.25,0,0,0,10-16.32C227.89,184.11,217.57,168.4,215.44,165.43Z"/><path class="cls-6" d="M250.9,131.06a123.76,123.76,0,0,1-1.84,21.32,8.47,8.47,0,0,1-15.29,3.4l-.11-.15c-16.43-22.94-44.17-29.36-66.47-34.5-14.44-3.34-29.38-6.8-30.94-12.9C134.17,100,155.43,81.84,168.12,71c10.85-9.28,22.38-19.15,30-29.56a8.43,8.43,0,0,1,12.44-1.35A122.52,122.52,0,0,1,250.9,131.06Z"/></svg>